# xmcd
#
# Track frame offsets:
#	150
#	11505
#	28157
#	41187
#	53157
#	66860
#	78112
#	90642
#	103060
#	112805
#	123282
#	135352
#	148535
#	162172
#	175350
#	188105
#	202167
#
# Disc length: 2853 seconds
#
# Revision: 1
# Processed by: cddbd v1.4PL0 Copyright (c) Steve Scherf et al.
# Submitted via: audiograbber 1.81.01
#
DISCID=e40b2311
DTITLE=Memphis Slim and Jack Dupree - Two Shades Of Blues
DYEAR=1994
DGENRE=Blues
TTITLE0=Memphis Slim - Lonesome
TTITLE1=Memphis Slim - Cold Blooded Woman
TTITLE2=Memphis Slim - One Man's Mad
TTITLE3=Memphis Slim - Good Time Roll Creole
TTITLE4=Memphis Slim - What Is The Mare-Rack (Instr)
TTITLE5=Memphis Slim - Pigalle Love
TTITLE6=Memphis Slim - Four Walls
TTITLE7=Memphis Slim - It's Been Too Long
TTITLE8=Memphis Slim - Big Bertha
TTITLE9=Memphis Slim - I'm Lost Without You
TTITLE10=Memphis Slim - I'll Just Keep On Swingin' The Blues
TTITLE11=Memphis Slim - True Love (Instr)
TTITLE12=Jack Dupree - Walking The blues
TTITLE13=Jack Dupree - Harelip Blues
TTITLE14=Jack Dupree - Overhead Blues
TTITLE15=Jack Dupree - Silent Partner
TTITLE16=Jack Dupree - Everybody's Blues
EXTD=Fat Boy Records 214
EXTT0=
EXTT1=
EXTT2=
EXTT3=
EXTT4=
EXTT5=
EXTT6=
EXTT7=
EXTT8=
EXTT9=
EXTT10=
EXTT11=
EXTT12=
EXTT13=
EXTT14=
EXTT15=
EXTT16=
PLAYORDER=
